<svg width="32" height="32" viewBox="0 0 32 32" fill="none" xmlns="http://www.w3.org/2000/svg">
<path d="M3.00005 27H29C29.1794 26.9997 29.3554 26.9511 29.5096 26.8595C29.6637 26.7678 29.7904 26.6363 29.8763 26.4788C29.9622 26.3214 30.0041 26.1437 29.9977 25.9644C29.9914 25.7852 29.9369 25.6109 29.84 25.46L16.84 5.45998C16.7494 5.31963 16.625 5.20423 16.4783 5.12433C16.3315 5.04443 16.1671 5.00256 16 5.00256C15.833 5.00256 15.6685 5.04443 15.5218 5.12433C15.3751 5.20423 15.2507 5.31963 15.16 5.45998L2.16005 25.46C2.06319 25.6109 2.00872 25.7852 2.00234 25.9644C1.99597 26.1437 2.03792 26.3214 2.12381 26.4788C2.2097 26.6363 2.33637 26.7678 2.49053 26.8595C2.64469 26.9511 2.82068 26.9997 3.00005 27V27ZM16 7.82998L27.16 25H4.84005L16 7.82998Z" fill="#A90D0D"/>
<path d="M16 21C15.7348 21 15.4804 21.1054 15.2929 21.2929C15.1054 21.4804 15 21.7348 15 22V23C15 23.2652 15.1054 23.5196 15.2929 23.7071C15.4804 23.8946 15.7348 24 16 24C16.2652 24 16.5196 23.8946 16.7071 23.7071C16.8946 23.5196 17 23.2652 17 23V22C17 21.7348 16.8946 21.4804 16.7071 21.2929C16.5196 21.1054 16.2652 21 16 21ZM16 12C15.7348 12 15.4804 12.1054 15.2929 12.2929C15.1054 12.4804 15 12.7348 15 13V19C15 19.2652 15.1054 19.5196 15.2929 19.7071C15.4804 19.8946 15.7348 20 16 20C16.2652 20 16.5196 19.8946 16.7071 19.7071C16.8946 19.5196 17 19.2652 17 19V13C17 12.7348 16.8946 12.4804 16.7071 12.2929C16.5196 12.1054 16.2652 12 16 12Z" fill="#A90D0D"/>
</svg>
