<svg width="11" height="12" viewBox="0 0 11 12" fill="none" xmlns="http://www.w3.org/2000/svg">
<path d="M4.09353 11.5381C3.73499 11.5381 3.39541 11.3708 3.17781 11.0823L0.232844 7.19113C0.141794 7.07096 0.0753221 6.93403 0.0372277 6.78815C-0.000866786 6.64228 -0.00983639 6.49032 0.0108315 6.34098C0.0314994 6.19163 0.0813994 6.04783 0.157679 5.91778C0.233959 5.78773 0.335122 5.67399 0.455386 5.58307C0.575606 5.49176 0.712664 5.42508 0.858703 5.38684C1.00474 5.3486 1.15689 5.33956 1.30643 5.36024C1.45597 5.38091 1.59996 5.43089 1.73015 5.50732C1.86034 5.58374 1.97416 5.68511 2.0651 5.80561L4.00286 8.36401L8.87487 0.540441C9.03645 0.282128 9.29388 0.0984462 9.59071 0.0296867C9.88753 -0.0390728 10.1995 0.012704 10.4582 0.17366C10.9964 0.508296 11.1621 1.21713 10.8258 1.75618L5.06941 10.9958C4.97115 11.1542 4.8357 11.2863 4.67483 11.3805C4.51396 11.4747 4.33253 11.5282 4.14628 11.5365C4.12814 11.5381 4.11166 11.5381 4.09353 11.5381V11.5381Z" fill="#022725"/>
</svg>
