<svg width="12" height="15" viewBox="0 0 12 15" fill="none" xmlns="http://www.w3.org/2000/svg">
<path d="M10.6124 5.85856L10.3874 12.6688C10.3683 13.252 10.1226 13.8048 9.70247 14.2099C9.28239 14.615 8.72099 14.8404 8.13742 14.8383H3.86242C3.27924 14.8404 2.71816 14.6153 2.29814 14.2107C1.87811 13.8061 1.63216 13.2539 1.61242 12.671L1.38742 5.85856C1.3825 5.70938 1.43704 5.56435 1.53905 5.45538C1.64106 5.34641 1.78218 5.28243 1.93136 5.2775C2.08055 5.27258 2.22558 5.32712 2.33455 5.42913C2.44352 5.53114 2.5075 5.67226 2.51242 5.82144L2.73742 12.6333C2.74863 12.9241 2.87208 13.1993 3.08186 13.401C3.29163 13.6027 3.57141 13.7152 3.86242 13.715H8.13742C8.42881 13.7152 8.70891 13.6023 8.91875 13.4001C9.12858 13.198 9.25179 12.9223 9.26242 12.6311L9.48742 5.82144C9.49235 5.67226 9.55633 5.53114 9.6653 5.42913C9.77427 5.32712 9.9193 5.27258 10.0685 5.2775C10.2177 5.28243 10.3588 5.34641 10.4608 5.45538C10.5628 5.56435 10.6173 5.70938 10.6124 5.85856V5.85856ZM11.3566 3.59225C11.3566 3.74144 11.2973 3.88451 11.1919 3.99C11.0864 4.09549 10.9433 4.15475 10.7941 4.15475H1.2063C1.05711 4.15475 0.91404 4.09549 0.808551 3.99C0.703062 3.88451 0.643799 3.74144 0.643799 3.59225C0.643799 3.44307 0.703062 3.29999 0.808551 3.19451C0.91404 3.08902 1.05711 3.02975 1.2063 3.02975H2.95005C3.12828 3.03023 3.30031 2.96439 3.43266 2.84503C3.56502 2.72567 3.64823 2.56133 3.66611 2.384C3.70762 1.96803 3.90251 1.5824 4.2128 1.30226C4.5231 1.02212 4.92657 0.86754 5.34461 0.868628H6.65524C7.07328 0.86754 7.47675 1.02212 7.78705 1.30226C8.09734 1.5824 8.29223 1.96803 8.33374 2.384C8.35161 2.56133 8.43483 2.72567 8.56718 2.84503C8.69954 2.96439 8.87157 3.03023 9.0498 3.02975H10.7935C10.9427 3.02975 11.0858 3.08902 11.1913 3.19451C11.2968 3.29999 11.356 3.44307 11.356 3.59225H11.3566ZM4.64261 3.02975H7.35836C7.28445 2.86086 7.2361 2.68189 7.21492 2.49875C7.20099 2.3601 7.13608 2.23156 7.03279 2.13803C6.92949 2.0445 6.79515 1.99264 6.6558 1.9925H5.34517C5.20582 1.99264 5.07149 2.0445 4.96819 2.13803C4.86489 2.23156 4.79998 2.3601 4.78605 2.49875C4.76469 2.68192 4.71616 2.86089 4.64205 3.02975H4.64261ZM5.20905 11.5522V6.7625C5.20905 6.61332 5.14979 6.47024 5.0443 6.36476C4.93881 6.25927 4.79573 6.2 4.64655 6.2C4.49736 6.2 4.35429 6.25927 4.2488 6.36476C4.14331 6.47024 4.08405 6.61332 4.08405 6.7625V11.5544C4.08405 11.7036 4.14331 11.8467 4.2488 11.9522C4.35429 12.0577 4.49736 12.1169 4.64655 12.1169C4.79573 12.1169 4.93881 12.0577 5.0443 11.9522C5.14979 11.8467 5.20905 11.7036 5.20905 11.5544V11.5522ZM7.91692 11.5522V6.7625C7.91692 6.61332 7.85766 6.47024 7.75217 6.36476C7.64668 6.25927 7.50361 6.2 7.35442 6.2C7.20524 6.2 7.06217 6.25927 6.95668 6.36476C6.85119 6.47024 6.79192 6.61332 6.79192 6.7625V11.5544C6.79192 11.7036 6.85119 11.8467 6.95668 11.9522C7.06217 12.0577 7.20524 12.1169 7.35442 12.1169C7.50361 12.1169 7.64668 12.0577 7.75217 11.9522C7.85766 11.8467 7.91692 11.7036 7.91692 11.5544V11.5522Z" fill="#022725"/>
</svg>
