<svg width="44" height="44" viewBox="0 0 44 44" fill="none" xmlns="http://www.w3.org/2000/svg">
<path d="M22.0001 0.333374C17.7148 0.333374 13.5258 1.6041 9.9627 3.98487C6.39963 6.36563 3.62256 9.7495 1.98266 13.7086C0.342762 17.6676 -0.0863104 22.0241 0.749703 26.227C1.58572 30.4299 3.64927 34.2906 6.6794 37.3207C9.70954 40.3508 13.5702 42.4144 17.7731 43.2504C21.976 44.0864 26.3325 43.6573 30.2915 42.0174C34.2506 40.3775 37.6345 37.6005 40.0152 34.0374C42.396 30.4743 43.6667 26.2853 43.6667 22C43.6667 19.1547 43.1063 16.3373 42.0174 13.7086C40.9286 11.0798 39.3326 8.69133 37.3207 6.67939C35.3088 4.66746 32.9202 3.0715 30.2915 1.98265C27.6628 0.893799 24.8454 0.333374 22.0001 0.333374V0.333374ZM22.0001 39.3334C18.5718 39.3334 15.2206 38.3168 12.3702 36.4122C9.51971 34.5076 7.29806 31.8005 5.98614 28.6332C4.67422 25.466 4.33096 21.9808 4.99977 18.6185C5.66858 15.2561 7.31942 12.1676 9.74353 9.74352C12.1676 7.31941 15.2561 5.66857 18.6185 4.99976C21.9808 4.33095 25.466 4.67421 28.6332 5.98613C31.8005 7.29805 34.5076 9.5197 36.4122 12.3702C38.3168 15.2206 39.3334 18.5718 39.3334 22C39.3334 26.5971 37.5072 31.0059 34.2566 34.2566C31.0059 37.5072 26.5971 39.3334 22.0001 39.3334V39.3334Z" fill="#022725"/>
<path d="M22 15.5001C23.1967 15.5001 24.1667 14.53 24.1667 13.3334C24.1667 12.1368 23.1967 11.1667 22 11.1667C20.8034 11.1667 19.8334 12.1368 19.8334 13.3334C19.8334 14.53 20.8034 15.5001 22 15.5001Z" fill="#022725"/>
<path d="M22 17.6667C21.4254 17.6667 20.8743 17.895 20.468 18.3014C20.0616 18.7077 19.8334 19.2588 19.8334 19.8334V30.6667C19.8334 31.2414 20.0616 31.7925 20.468 32.1988C20.8743 32.6051 21.4254 32.8334 22 32.8334C22.5747 32.8334 23.1258 32.6051 23.5321 32.1988C23.9384 31.7925 24.1667 31.2414 24.1667 30.6667V19.8334C24.1667 19.2588 23.9384 18.7077 23.5321 18.3014C23.1258 17.895 22.5747 17.6667 22 17.6667Z" fill="#022725"/>
</svg>
