<svg width="34" height="34" viewBox="0 0 34 34" fill="none" xmlns="http://www.w3.org/2000/svg">
<path d="M23.3128 18.2058C24.9877 16.8953 26.2102 15.0982 26.8103 13.0645C27.4104 11.0308 27.3581 8.86168 26.6609 6.85888C25.9636 4.85608 24.656 3.11921 22.92 1.88991C21.184 0.660604 19.1058 0 16.9747 0C14.8435 0 12.7654 0.660604 11.0293 1.88991C9.29329 3.11921 7.98568 4.85608 7.28843 6.85888C6.59118 8.86168 6.53896 11.0308 7.13903 13.0645C7.7391 15.0982 8.96162 16.8953 10.6365 18.2058C7.76655 19.3494 5.2624 21.246 3.39103 23.6935C1.51967 26.1411 0.351237 29.0478 0.0103048 32.1038C-0.0143737 32.327 0.00537867 32.5527 0.0684336 32.7682C0.131489 32.9838 0.236611 33.1848 0.3778 33.36C0.662944 33.7136 1.07768 33.9402 1.53078 33.9897C1.98387 34.0393 2.43821 33.9078 2.79383 33.6243C3.14946 33.3407 3.37725 32.9282 3.42709 32.4776C3.80223 29.1564 5.39463 26.089 7.90004 23.8615C10.4055 21.6341 13.6482 20.4027 17.0088 20.4027C20.3694 20.4027 23.6122 21.6341 26.1176 23.8615C28.623 26.089 30.2154 29.1564 30.5906 32.4776C30.637 32.8951 30.8373 33.2807 31.1528 33.5599C31.4683 33.8392 31.8766 33.9923 32.299 33.9897H32.4869C32.9347 33.9385 33.344 33.7133 33.6256 33.3632C33.9072 33.0132 34.0383 32.5666 33.9903 32.1208C33.6477 29.0561 32.473 26.1419 30.592 23.6906C28.711 21.2393 26.1947 19.3433 23.3128 18.2058ZM16.9747 16.9995C15.6231 16.9995 14.3019 16.601 13.1781 15.8542C12.0544 15.1074 11.1785 14.046 10.6613 12.8042C10.144 11.5624 10.0087 10.1959 10.2724 8.87761C10.5361 7.5593 11.1869 6.34835 12.1426 5.3979C13.0983 4.44745 14.3159 3.80019 15.6415 3.53796C16.9671 3.27573 18.3411 3.41032 19.5898 3.9247C20.8384 4.43908 21.9057 5.31015 22.6566 6.42776C23.4075 7.54537 23.8082 8.85932 23.8082 10.2035C23.8082 12.0059 23.0883 13.7345 21.8067 15.009C20.5252 16.2835 18.787 16.9995 16.9747 16.9995Z" fill="#032F2C"/>
</svg>
