<svg width="37" height="45" viewBox="0 0 37 45" fill="none" xmlns="http://www.w3.org/2000/svg">
<path d="M25.9221 0.772797L27.6847 3.82572C27.9316 4.2522 27.7858 4.7982 27.359 5.04521C27.3465 5.05245 27.3338 5.05943 27.3209 5.06608L21.8395 7.88734C27.1637 8.85493 31.7908 12.1162 34.4903 16.8038C39.571 25.604 36.5276 36.9292 27.718 42.0068C18.8943 47.0926 7.61955 44.0718 2.52987 35.2562C0.241176 31.305 -0.493235 26.6425 0.469791 22.1776C0.571005 21.6951 1.0442 21.3858 1.52672 21.4867C1.54295 21.4901 1.55904 21.494 1.57509 21.4982L5.02996 22.4227C5.48358 22.5442 5.76532 22.9963 5.67439 23.457C4.2503 30.545 8.84303 37.4417 15.9326 38.8613C23.0221 40.2809 29.9237 35.6857 31.3478 28.5978C32.7719 21.5098 28.1791 14.6131 21.0896 13.1935C20.5339 13.0822 19.9715 13.0072 19.4061 12.9687L23.4945 19.3255C23.7609 19.74 23.6406 20.2922 23.2257 20.5588C23.2135 20.5666 23.2012 20.5741 23.1886 20.5813L20.1336 22.3451C19.7066 22.5917 19.1607 22.4456 18.9143 22.0188L11.4664 9.11873C11.22 8.69193 11.3665 8.14612 11.7935 7.89956L24.7027 0.446438C25.1298 0.199941 25.6757 0.345999 25.9221 0.772797Z" fill="#083C38"/>
</svg>
