<svg width="40" height="40" viewBox="0 0 40 40" fill="none" xmlns="http://www.w3.org/2000/svg">
<path fill-rule="evenodd" clip-rule="evenodd" d="M20.0426 0.000119356C17.9623 -0.0136279 16.0502 1.16115 15.1235 3.01937L14.2639 4.73856C13.9252 4.86435 13.592 5.00213 13.2623 5.1506L11.4403 4.5432C9.47192 3.88608 7.28717 4.40706 5.82855 5.88943C4.39098 7.35063 3.8975 9.50183 4.54637 11.4413L5.15372 13.2599C5.00208 13.5919 4.8602 13.9274 4.73106 14.2687L3.01913 15.1248C1.163 16.0507 -0.0150711 17.9611 0.000145665 20.0408C0.0151495 22.0912 1.18637 23.9617 3.01557 24.8752L4.73817 25.7419C4.86444 26.0807 5.00176 26.4141 5.15017 26.7436L4.54637 28.5622C3.88996 30.5289 4.40923 32.7119 5.88893 34.1709C7.34886 35.6105 9.50002 36.1043 11.4403 35.4567L13.2588 34.8529C13.5904 35.0041 13.9266 35.1428 14.2675 35.272L15.1235 36.9806C16.0502 38.8389 17.9623 40.0161 20.0426 39.9998C22.0925 39.9861 23.9634 38.8117 24.8765 36.9806L25.7325 35.2685C26.0755 35.1413 26.4146 35.0034 26.7483 34.8529L28.5597 35.4567C30.5 36.1042 32.6511 35.6107 34.1111 34.1709C35.5916 32.711 36.1118 30.5262 35.4536 28.5587L34.8498 26.74C35.0007 26.4094 35.1404 26.0746 35.2689 25.7348L36.9809 24.8752C38.8115 23.9621 39.9848 22.0921 39.9999 20.0408C40.0151 17.9611 38.837 16.0507 36.9809 15.1248L35.2618 14.2652C35.1354 13.9242 34.9986 13.5882 34.8498 13.2564L35.4536 11.4413V11.4377C36.1007 9.49917 35.6082 7.34974 34.1714 5.88943C32.7128 4.40678 30.5281 3.88629 28.5597 4.5432L26.7377 5.1506C26.407 5.00007 26.0724 4.86 25.7325 4.73146L24.8765 3.01937C23.9634 1.18836 22.0926 0.016135 20.0426 0.000119356ZM20.0142 3.63743C20.6981 3.64272 21.3161 4.03061 21.6231 4.64621L22.7775 6.95505C22.8858 7.17221 23.0366 7.36548 23.2208 7.52348C23.405 7.68148 23.619 7.80101 23.8501 7.87503C24.5352 8.09361 25.2006 8.36787 25.8391 8.69911C26.0546 8.81129 26.2904 8.87914 26.5326 8.89867C26.7748 8.91819 27.0184 8.88898 27.2491 8.81277L29.7069 7.9958H29.7105C30.3728 7.77447 31.0922 7.94765 31.5787 8.43981C32.0578 8.92715 32.2196 9.63798 32.0013 10.2904V10.294L31.188 12.7413C31.1122 12.9701 31.0825 13.2115 31.1008 13.4518C31.1191 13.692 31.185 13.9263 31.2945 14.1409C31.6217 14.7808 31.8932 15.4477 32.1079 16.1336C32.1811 16.367 32.3006 16.5832 32.4592 16.7694C32.6179 16.9555 32.8125 17.1077 33.0313 17.2169L35.3542 18.3785C35.9789 18.6898 36.368 19.3197 36.3629 20.0124C36.3579 20.695 35.9701 21.3143 35.3542 21.6215H35.3506L33.042 22.7795C32.8255 22.8882 32.6329 23.0391 32.4756 23.2233C32.3182 23.4076 32.1992 23.6214 32.1256 23.8522C31.9058 24.5375 31.6304 25.2029 31.2981 25.8413C31.1854 26.0574 31.1173 26.2938 31.0978 26.5367C31.0783 26.7795 31.1077 27.0238 31.1844 27.2551L32.0013 29.7095C32.2228 30.3715 32.0547 31.091 31.5609 31.5779C31.0743 32.0577 30.3631 32.222 29.7105 32.0042H29.7069L27.2598 31.1907C27.0306 31.1144 26.7884 31.0845 26.5476 31.1028C26.3067 31.1211 26.0719 31.1872 25.8568 31.2973C25.2161 31.6259 24.5513 31.8987 23.8643 32.1143C23.6309 32.1874 23.4147 32.3069 23.2286 32.4656C23.0424 32.6243 22.8902 32.8189 22.781 33.0378L21.6231 35.3537C21.3161 35.9696 20.6982 36.3572 20.0142 36.3625C19.3197 36.368 18.6886 35.979 18.3769 35.3537L17.2225 33.0485C17.1142 32.8313 16.9634 32.638 16.7792 32.48C16.595 32.322 16.381 32.2025 16.1499 32.1285C15.4636 31.9085 14.7967 31.6335 14.1574 31.3008C13.9414 31.1882 13.705 31.1201 13.4621 31.1005C13.2193 31.081 12.975 31.1105 12.7438 31.1872L10.2895 32.0042C9.63687 32.222 8.92567 32.0591 8.43908 31.5779C7.94531 31.0912 7.7772 30.3715 7.99867 29.7095V29.706L8.81202 27.2586C8.88778 27.0291 8.91706 26.7869 8.89816 26.546C8.87925 26.3051 8.81254 26.0704 8.70191 25.8555C8.37385 25.217 8.10087 24.5513 7.88501 23.8664C7.81224 23.6343 7.69365 23.4191 7.53625 23.2336C7.37885 23.0481 7.18585 22.8961 6.96866 22.7866L4.64937 21.6215H4.64582C4.02986 21.3142 3.64212 20.6953 3.63713 20.0124C3.63206 19.3197 4.02112 18.69 4.64582 18.3785L6.95445 17.224C7.1716 17.1157 7.36485 16.9649 7.52284 16.7807C7.68082 16.5965 7.80034 16.3825 7.87436 16.1513C8.09422 15.466 8.36959 14.8006 8.70191 14.1622C8.81408 13.9466 8.88193 13.7108 8.90145 13.4686C8.92097 13.2264 8.89177 12.9827 8.81557 12.752L7.99867 10.294V10.2904C7.7804 9.63812 7.94217 8.92681 8.42132 8.43981C8.90777 7.94559 9.62722 7.77516 10.2895 7.9958L12.7402 8.81277C12.9694 8.88908 13.2116 8.91896 13.4524 8.90067C13.6933 8.88237 13.9281 8.81627 14.1432 8.70621C14.782 8.37903 15.4474 8.10752 16.1322 7.89279C16.3655 7.81961 16.5818 7.7001 16.7679 7.54142C16.954 7.38274 17.1062 7.18813 17.2154 6.96925L18.3769 4.64621C18.6886 4.02071 19.3197 3.632 20.0142 3.63743ZM20.0071 10.9085C15.007 10.9085 10.904 14.9977 10.904 19.9982C10.904 24.9987 15.007 29.0986 20.0071 29.0986C25.0072 29.0986 29.0925 24.9987 29.0925 19.9982C29.0924 14.9977 25.0072 10.9085 20.0071 10.9085ZM20.0071 14.5458C23.0416 14.5458 25.4555 16.9634 25.4555 19.9982C25.4555 23.033 23.0416 25.4613 20.0071 25.4613C16.9726 25.4613 14.541 23.033 14.541 19.9982C14.541 16.9634 16.9726 14.5458 20.0071 14.5458Z" fill="#022725"/>
</svg>
