<svg width="37" height="29" viewBox="0 0 37 29" fill="none" xmlns="http://www.w3.org/2000/svg">
<path d="M14.377 29C13.0546 28.9988 11.7868 28.4678 10.8523 27.5237L1.45879 18.0285C0.52476 17.0849 0.00012207 15.8057 0.00012207 14.472C0.00012207 13.1384 0.52476 11.8592 1.45879 10.9156L2.62259 9.72446C3.08597 9.25527 3.63657 8.883 4.24284 8.62898C4.8491 8.37497 5.4991 8.24421 6.15555 8.24421C6.812 8.24421 7.462 8.37497 8.06826 8.62898C8.67453 8.883 9.22513 9.25527 9.68851 9.72446L14.377 14.472L27.3117 1.42039C28.266 0.508328 29.5303 0 30.8447 0C32.1591 0 33.4234 0.508328 34.3777 1.42039L35.5415 2.61148C36.4755 3.55512 37.0001 4.83428 37.0001 6.16797C37.0001 7.50166 36.4755 8.78082 35.5415 9.72446L17.9182 27.5237C17.4535 27.9932 16.9014 28.3653 16.2937 28.6187C15.6859 28.872 15.0345 29.0016 14.377 29ZM6.16386 11.6034C5.94389 11.6043 5.72629 11.6492 5.52367 11.7356C5.32104 11.822 5.13742 11.9481 4.98344 12.1066L3.80302 13.281C3.64719 13.4369 3.5235 13.6225 3.43909 13.8269C3.35469 14.0313 3.31123 14.2506 3.31123 14.472C3.31123 14.6935 3.35469 14.9128 3.43909 15.1172C3.5235 15.3216 3.64719 15.5072 3.80302 15.6631L13.2132 25.1415C13.5247 25.454 13.946 25.6294 14.3853 25.6294C14.8245 25.6294 15.2459 25.454 15.5574 25.1415L33.1972 7.35906C33.3531 7.20311 33.4767 7.01756 33.5612 6.81313C33.6456 6.6087 33.689 6.38943 33.689 6.16797C33.689 5.94651 33.6456 5.72724 33.5612 5.52281C33.4767 5.31838 33.3531 5.13283 33.1972 4.97688L32.0168 3.80257C31.7053 3.49011 31.2839 3.31473 30.8447 3.31473C30.4055 3.31473 29.9841 3.49011 29.6726 3.80257L15.5574 18.0285C15.2459 18.341 14.8245 18.5164 14.3853 18.5164C13.946 18.5164 13.5247 18.341 13.2132 18.0285L7.32766 12.1066C7.0207 11.7906 6.6024 11.6097 6.16386 11.6034Z" fill="#022725"/>
</svg>
