<?xml version="1.0" encoding="UTF-8"?><svg xmlns="http://www.w3.org/2000/svg" xmlns:xlink="http://www.w3.org/1999/xlink" viewBox="0 0 14.77 16.39"><defs><style>.j{fill:#fff;}.k{filter:url(#f);}.l{fill:#124948;}.m{fill:#0a9e8c;}.n{mask:url(#d);}</style><filter id="f" x="0" y=".45" width="14" height="15.93" color-interpolation-filters="sRGB" filterUnits="userSpaceOnUse"><feFlood flood-color="#fff" result="bg"/><feBlend in="SourceGraphic" in2="bg"/></filter><mask id="d" x="0" y=".45" width="14" height="15.93" maskUnits="userSpaceOnUse"><g class="k"><rect class="j" x="4.46" y="-.36" width="5" height="6.89" transform="translate(9.77 -3.99) rotate(87.8)"/></g></mask></defs><g id="a"/><g id="b"><circle class="l" cx="7" cy="9.39" r="7"/></g><g id="c"><g class="n"><path class="m" d="M11.8,8.07c.4,1.44,.16,3.04-.81,4.33-1.66,2.21-4.8,2.65-7,.99-2.21-1.66-2.65-4.8-.99-7,.93-1.23,2.32-1.89,3.75-1.96l-.1-2.02c-2,.1-3.95,1.05-5.25,2.78C-.92,8.26-.3,12.65,2.79,14.98s7.48,1.71,9.8-1.38c1.36-1.8,1.71-4.05,1.15-6.07l-1.94,.53Z"/></g></g><g id="g"><circle class="l" cx="7" cy="9.39" r="5"/></g><g id="h"/><g id="i"><path class="m" d="M5.61,11.55c-.02-1.3,0-2.59,.06-3.89l-1.02,.42,2.98,3.8c.23,.3,.78,.2,.94-.12,1.01-2.01,1.94-4.06,2.95-6.07,.35-.69-.69-1.3-1.04-.61-1.01,2.01-1.94,4.06-2.95,6.07l.94-.12-2.98-3.8c-.34-.44-1-.04-1.02,.42-.06,1.3-.08,2.59-.06,3.89,.01,.77,1.21,.77,1.2,0h0Z"/></g></svg>