<svg width="33" height="24" viewBox="0 0 33 24" fill="none" xmlns="http://www.w3.org/2000/svg">
<path d="M28.1262 23.36H4.65666C3.42208 23.3586 2.23849 22.8675 1.36551 21.9945C0.492527 21.1215 0.00144989 19.9379 0 18.7033V4.65666C0.00144989 3.42208 0.492527 2.23849 1.36551 1.36551C2.23849 0.492527 3.42208 0.00144989 4.65666 0H28.1262C29.3608 0.00144989 30.5444 0.492527 31.4174 1.36551C32.2904 2.23849 32.7814 3.42208 32.7829 4.65666V18.7033C32.7814 19.9379 32.2904 21.1215 31.4174 21.9945C30.5444 22.8675 29.3608 23.3586 28.1262 23.36ZM4.65666 1.64353C3.85753 1.64353 3.09113 1.96098 2.52605 2.52605C1.96098 3.09113 1.64353 3.85753 1.64353 4.65666V18.7033C1.64353 19.5025 1.96098 20.2689 2.52605 20.8339C3.09113 21.399 3.85753 21.7165 4.65666 21.7165H28.1262C28.9254 21.7165 29.6918 21.399 30.2568 20.8339C30.8219 20.2689 31.1394 19.5025 31.1394 18.7033V4.65666C31.1394 3.85753 30.8219 3.09113 30.2568 2.52605C29.6918 1.96098 28.9254 1.64353 28.1262 1.64353H4.65666Z" fill="#D9D9D9"/>
<path d="M16.3914 15.0109C15.3777 15.0125 14.3911 14.6836 13.581 14.0741L0.788896 4.39919C0.698514 4.33576 0.621843 4.25476 0.563462 4.16104C0.50508 4.06731 0.466187 3.96278 0.449103 3.85369C0.43202 3.7446 0.437097 3.63319 0.464032 3.5261C0.490967 3.41902 0.539207 3.31846 0.605871 3.23043C0.672535 3.14241 0.756256 3.06872 0.852033 3.01377C0.94781 2.95882 1.05368 2.92374 1.16332 2.91062C1.27295 2.89749 1.38411 2.9066 1.49015 2.9374C1.59619 2.96819 1.69494 3.02004 1.78049 3.08985L14.5726 12.7757C15.0979 13.1678 15.7359 13.3797 16.3914 13.3797C17.047 13.3797 17.685 13.1678 18.2103 12.7757L31.0024 3.08985C31.088 3.02004 31.1867 2.96819 31.2927 2.9374C31.3988 2.9066 31.5099 2.89749 31.6196 2.91062C31.7292 2.92374 31.8351 2.95882 31.9309 3.01377C32.0266 3.06872 32.1104 3.14241 32.177 3.23043C32.2437 3.31846 32.2919 3.41902 32.3189 3.5261C32.3458 3.63319 32.3509 3.7446 32.3338 3.85369C32.3167 3.96278 32.2778 4.06731 32.2194 4.16104C32.1611 4.25476 32.0844 4.33576 31.994 4.39919L19.2019 14.0741C18.3918 14.6836 17.4052 15.0125 16.3914 15.0109Z" fill="#D9D9D9"/>
<path d="M1.14499 21.07C0.978324 21.0703 0.815521 21.0198 0.678186 20.9254C0.54085 20.831 0.435475 20.697 0.376043 20.5413C0.316611 20.3856 0.305931 20.2155 0.345421 20.0535C0.384912 19.8916 0.472704 19.7455 0.597151 19.6347L10.6775 10.6446C10.8402 10.4993 11.054 10.4246 11.2718 10.4369C11.4896 10.4492 11.6936 10.5476 11.8389 10.7103C11.9842 10.8731 12.0589 11.0868 12.0465 11.3046C12.0342 11.5225 11.9359 11.7264 11.7731 11.8717L1.69284 20.8618C1.54314 20.998 1.34737 21.0724 1.14499 21.07ZM31.6379 21.07C31.4355 21.0724 31.2398 20.998 31.0901 20.8618L21.0098 11.8717C20.9292 11.7998 20.8636 11.7127 20.8167 11.6154C20.7697 11.5181 20.7425 11.4125 20.7363 11.3046C20.7302 11.1968 20.7454 11.0888 20.7811 10.9868C20.8167 10.8849 20.8721 10.7909 20.944 10.7103C21.016 10.6297 21.1031 10.5641 21.2004 10.5172C21.2977 10.4703 21.4033 10.443 21.5111 10.4369C21.619 10.4308 21.727 10.446 21.8289 10.4816C21.9309 10.5173 22.0249 10.5726 22.1054 10.6446L32.1803 19.6347C32.3047 19.7455 32.3925 19.8916 32.432 20.0535C32.4715 20.2155 32.4608 20.3856 32.4014 20.5413C32.3419 20.697 32.2366 20.831 32.0992 20.9254C31.9619 21.0198 31.7991 21.0703 31.6324 21.07H31.6379Z" fill="#D9D9D9"/>
</svg>
