<svg width="26" height="37" viewBox="0 0 26 37" fill="none" xmlns="http://www.w3.org/2000/svg">
<path fill-rule="evenodd" clip-rule="evenodd" d="M4.72727 14.9091H3.54545C2.60473 14.9091 1.703 15.2826 1.03882 15.9479C0.373455 16.6121 0 17.5138 0 18.4546C0 22.3203 0 28.7706 0 32.6364C0 33.5771 0.373455 34.4788 1.03882 35.143C1.703 35.8084 2.60473 36.1818 3.54545 36.1818C8.07418 36.1818 17.9258 36.1818 22.4545 36.1818C23.3953 36.1818 24.297 35.8084 24.9612 35.143C25.6265 34.4788 26 33.5771 26 32.6364V18.4546C26 17.5138 25.6265 16.6121 24.9612 15.9479C24.297 15.2826 23.3953 14.9091 22.4545 14.9091H21.2727V9.00001C21.2727 4.43464 17.5654 0.72728 13 0.72728C8.45236 0.72728 4.75564 4.4051 4.72727 8.94683V14.9091ZM3.54545 17.2727H22.4545C22.7677 17.2727 23.0691 17.3968 23.2901 17.619C23.5123 17.84 23.6364 18.1414 23.6364 18.4546V32.6364C23.6364 32.9496 23.5123 33.2509 23.2901 33.4719C23.0691 33.6941 22.7677 33.8182 22.4545 33.8182H3.54545C3.23227 33.8182 2.93091 33.6941 2.70991 33.4719C2.48773 33.2509 2.36364 32.9496 2.36364 32.6364V18.4546C2.36364 18.1414 2.48773 17.84 2.70991 17.619C2.93091 17.3968 3.23227 17.2727 3.54545 17.2727ZM7.09091 14.9091V8.95864C7.11336 5.71692 9.75236 3.09092 13 3.09092C16.2618 3.09092 18.9091 5.73819 18.9091 9.00001V14.9091H7.09091Z" fill="#D9D9D9"/>
<path fill-rule="evenodd" clip-rule="evenodd" d="M12.9999 22C11.0428 22 9.45447 23.5884 9.45447 25.5455C9.45447 27.5026 11.0428 29.0909 12.9999 29.0909C14.957 29.0909 16.5454 27.5026 16.5454 25.5455C16.5454 23.5884 14.957 22 12.9999 22ZM12.9999 24.3637C13.6523 24.3637 14.1817 24.8931 14.1817 25.5455C14.1817 26.1978 13.6523 26.7273 12.9999 26.7273C12.3476 26.7273 11.8181 26.1978 11.8181 25.5455C11.8181 24.8931 12.3476 24.3637 12.9999 24.3637Z" fill="#D9D9D9"/>
</svg>
