<svg width="32" height="34" viewBox="0 0 32 34" fill="none" xmlns="http://www.w3.org/2000/svg">
<path d="M20.1333 17.959C23.0222 16.2154 24.8889 12.7718 24.8889 9.58974C24.8889 5.05641 21.1111 0 16 0C10.8889 0 7.11111 5.05641 7.11111 9.58974C7.11111 12.7718 8.97778 16.2154 11.8667 17.959C5.02222 19.7462 0 25.8923 0 33.1282C0 33.6077 0.4 34 0.888889 34H31.1111C31.6 34 32 33.6077 32 33.1282C32 25.8923 26.9778 19.7462 20.1333 17.959ZM8.88889 9.58974C8.88889 5.1 12.6667 1.74359 16 1.74359C19.3333 1.74359 23.1111 5.1 23.1111 9.58974C23.1111 14.0795 19.3333 17.4359 16 17.4359C12.6667 17.4359 8.88889 14.0795 8.88889 9.58974ZM1.82222 32.2564C2.26667 24.9769 8.48889 19.1795 16 19.1795C23.5111 19.1795 29.7333 24.9769 30.1778 32.2564H1.82222Z" fill="#D9D9D9"/>
</svg>
